<svg width="26" height="26" viewBox="0 0 26 26" fill="none" xmlns="http://www.w3.org/2000/svg">
<path d="M9.0868 4.00401L23.4128 1.40401C24.1278 1.30001 24.6998 1.98901 24.6998 2.70401V18.85C24.6998 21.372 22.6588 23.4 20.1498 23.4C17.6408 23.4 15.5998 21.372 15.5998 18.85C15.5998 16.341 17.6408 14.3 20.1498 14.3C20.8518 14.3 21.5018 14.482 22.0998 14.755V6.60401L10.3998 9.20401V20.8C10.0878 23.01 8.1378 24.7 5.8498 24.7C3.3408 24.7 1.2998 22.672 1.2998 20.15C1.2998 17.641 3.3408 15.6 5.8498 15.6C6.5518 15.6 7.2018 15.782 7.7998 16.055V5.30401C7.7998 4.58901 8.3718 4.12101 9.0868 4.00401Z" fill="white"/>
</svg>
