<svg width="80" height="82" viewBox="0 0 80 82" fill="none" xmlns="http://www.w3.org/2000/svg">
<path d="M9.2228 4.99301H55.855C60.9327 4.99301 65.0778 9.24172 65.0778 14.4464V63.6251C65.0778 68.8298 60.9327 73.0785 55.855 73.0785H9.2228C4.14508 73.0785 0 68.8298 0 63.6251V14.3402C0 9.24172 4.14508 4.99301 9.2228 4.99301Z" fill="#4A566E"/>
<path d="M30.1555 49.4983L16.4767 35.4776L0 52.3662V55.8714V63.5191C0 68.7237 4.14508 72.9724 9.2228 72.9724H55.855C60.9327 72.9724 65.0778 68.7237 65.0778 63.5191V55.8714V45.3559L49.6373 29.4232L30.1555 49.4983Z" fill="#30D5C8"/>
<path d="M29.7411 33.4593C32.9461 33.4593 35.5442 30.7962 35.5442 27.5111C35.5442 24.2261 32.9461 21.563 29.7411 21.563C26.5361 21.563 23.938 24.2261 23.938 27.5111C23.938 30.7962 26.5361 33.4593 29.7411 33.4593Z" fill="#FFCC03"/>
<path d="M65.0776 77.0088C73.319 77.0088 79.9999 70.1609 79.9999 61.7135C79.9999 53.2661 73.319 46.4181 65.0776 46.4181C56.8362 46.4181 50.1553 53.2661 50.1553 61.7135C50.1553 70.1609 56.8362 77.0088 65.0776 77.0088Z" fill="white"/>
<path d="M62.9016 54.5951C62.9016 53.3205 63.8342 52.3645 65.0778 52.3645C66.2176 52.3645 67.2539 53.3205 67.2539 54.5951V69.0408C67.2539 70.3154 66.3213 71.2714 65.0778 71.2714C63.8342 71.2714 62.9016 70.3154 62.9016 69.0408V54.5951Z" fill="#30D5C8"/>
<path d="M63.5234 56.0822C62.6944 55.2325 62.6944 53.8516 63.5234 53.0019C64.3524 52.1521 65.6995 52.1521 66.5286 53.0019L71.5026 58.1003C72.3317 58.9501 72.3317 60.3309 71.5026 61.1807C70.6736 62.0304 69.3265 62.0304 68.4975 61.1807L63.5234 56.0822Z" fill="#30D5C8"/>
<path d="M63.5235 53.0019C64.3525 52.1521 65.6997 52.1521 66.5287 53.0019C67.3577 53.8516 67.3577 55.2324 66.5287 56.0822L61.6582 61.1807C60.8292 62.0304 59.482 62.0304 58.653 61.1807C57.824 60.3309 57.824 58.9501 58.653 58.1003L63.5235 53.0019Z" fill="#30D5C8"/>
</svg>
