<svg width="20" height="20" viewBox="0 0 20 20" fill="none" xmlns="http://www.w3.org/2000/svg">
<path d="M8.5 4H11.5C11.5 3.60218 11.342 3.22064 11.0607 2.93934C10.7794 2.65804 10.3978 2.5 10 2.5C9.60218 2.5 9.22064 2.65804 8.93934 2.93934C8.65804 3.22064 8.5 3.60218 8.5 4ZM7.5 4C7.5 3.33696 7.76339 2.70107 8.23223 2.23223C8.70107 1.76339 9.33696 1.5 10 1.5C10.663 1.5 11.2989 1.76339 11.7678 2.23223C12.2366 2.70107 12.5 3.33696 12.5 4H17.5C17.6326 4 17.7598 4.05268 17.8536 4.14645C17.9473 4.24021 18 4.36739 18 4.5C18 4.63261 17.9473 4.75979 17.8536 4.85355C17.7598 4.94732 17.6326 5 17.5 5H16.446L15.252 15.344C15.1676 16.0752 14.8173 16.7498 14.2679 17.2396C13.7184 17.7293 13.008 17.9999 12.272 18H7.728C6.99195 17.9999 6.28161 17.7293 5.73214 17.2396C5.18266 16.7498 4.8324 16.0752 4.748 15.344L3.554 5H2.5C2.36739 5 2.24021 4.94732 2.14645 4.85355C2.05268 4.75979 2 4.63261 2 4.5C2 4.36739 2.05268 4.24021 2.14645 4.14645C2.24021 4.05268 2.36739 4 2.5 4H7.5ZM9 8C9 7.86739 8.94732 7.74021 8.85355 7.64645C8.75979 7.55268 8.63261 7.5 8.5 7.5C8.36739 7.5 8.24021 7.55268 8.14645 7.64645C8.05268 7.74021 8 7.86739 8 8V14C8 14.1326 8.05268 14.2598 8.14645 14.3536C8.24021 14.4473 8.36739 14.5 8.5 14.5C8.63261 14.5 8.75979 14.4473 8.85355 14.3536C8.94732 14.2598 9 14.1326 9 14V8ZM11.5 7.5C11.3674 7.5 11.2402 7.55268 11.1464 7.64645C11.0527 7.74021 11 7.86739 11 8V14C11 14.1326 11.0527 14.2598 11.1464 14.3536C11.2402 14.4473 11.3674 14.5 11.5 14.5C11.6326 14.5 11.7598 14.4473 11.8536 14.3536C11.9473 14.2598 12 14.1326 12 14V8C12 7.86739 11.9473 7.74021 11.8536 7.64645C11.7598 7.55268 11.6326 7.5 11.5 7.5Z" fill="#FE543D"/>
</svg>
